<?xml version="1.0" standalone="no"?><!DOCTYPE svg PUBLIC "-//W3C//DTD SVG 1.1//EN" "http://www.w3.org/Graphics/SVG/1.1/DTD/svg11.dtd"><svg t="1589211053276" class="icon" viewBox="0 0 1024 1024" version="1.1" xmlns="http://www.w3.org/2000/svg" p-id="14292" xmlns:xlink="http://www.w3.org/1999/xlink" width="200" height="200"><defs><style type="text/css"></style></defs><path d="M880.981333 938.666667l-215.466667 0c-31.808 0-57.685333-26.304-57.685333-58.666667l0-187.093333c0-11.626667-9.301333-21.077333-20.736-21.077333l-151.530667 0c-11.434667 0-20.757333 9.472-20.757333 21.077333l0 187.093333c0 32.362667-25.877333 58.666667-57.685333 58.666667L143.018667 938.666667C111.210667 938.666667 85.333333 912.362667 85.333333 880L85.333333 445.568c0-27.562667 16.874667-62.272 38.442667-78.997333l345.173333-267.818667c22.997333-17.856 61.76-17.877333 84.8-0.064l346.410667 267.925333C921.770667 383.296 938.666667 417.984 938.666667 445.568L938.666667 880C938.666667 912.362667 912.789333 938.666667 880.981333 938.666667zM435.562667 634.24l151.530667 0c31.808 0 57.685333 26.304 57.685333 58.666667l0 187.093333c0 11.626667 9.301333 21.077333 20.736 21.077333l215.466667 0c11.413333 0 20.736-9.472 20.736-21.077333L901.717333 445.568c0-16-11.392-39.36-23.914667-49.024L531.370667 128.597333c-10.069333-7.744-29.930667-7.765333-40 0.021333L146.176 396.458667c-12.501333 9.706667-23.893333 33.130667-23.893333 49.130667L122.282667 880c0 11.626667 9.301333 21.077333 20.736 21.077333l214.122667 0c11.413333 0 20.736-9.472 20.736-21.077333l0-187.093333C377.856 660.544 403.733333 634.24 435.562667 634.24z" p-id="14293"></path></svg>