<?xml version="1.0" standalone="no"?><!DOCTYPE svg PUBLIC "-//W3C//DTD SVG 1.1//EN" "http://www.w3.org/Graphics/SVG/1.1/DTD/svg11.dtd"><svg t="1589213904799" class="icon" viewBox="0 0 1024 1024" version="1.1" xmlns="http://www.w3.org/2000/svg" p-id="6868" xmlns:xlink="http://www.w3.org/1999/xlink" width="200" height="200"><defs><style type="text/css"></style></defs><path d="M192 224c0 35.36-28.64 64-64 64L64 288C28.64 288 0 259.36 0 224L0 160c0-35.36 28.64-64 64-64l64 0c35.36 0 64 28.64 64 64L192 224z" p-id="6869"></path><path d="M192 544c0 35.328-28.64 64-64 64L64 608c-35.36 0-64-28.672-64-64l0-64c0-35.36 28.64-64 64-64l64 0c35.36 0 64 28.64 64 64L192 544z" p-id="6870"></path><path d="M192 864c0 35.328-28.64 64-64 64L64 928c-35.36 0-64-28.672-64-64l0-64c0-35.36 28.64-64 64-64l64 0c35.36 0 64 28.64 64 64L192 864z" p-id="6871"></path><path d="M1024 224c0 35.36-28.64 64-64 64L384 288c-35.36 0-64-28.64-64-64L320 160c0-35.36 28.64-64 64-64l576 0c35.36 0 64 28.64 64 64L1024 224z" p-id="6872"></path><path d="M1024 544c0 35.328-28.64 64-64 64L384 608c-35.36 0-64-28.672-64-64l0-64c0-35.36 28.64-64 64-64l576 0c35.36 0 64 28.64 64 64L1024 544z" p-id="6873"></path><path d="M1024 864c0 35.328-28.64 64-64 64L384 928c-35.36 0-64-28.672-64-64l0-64c0-35.36 28.64-64 64-64l576 0c35.36 0 64 28.64 64 64L1024 864z" p-id="6874"></path></svg>