<?xml version="1.0" standalone="no"?><!DOCTYPE svg PUBLIC "-//W3C//DTD SVG 1.1//EN" "http://www.w3.org/Graphics/SVG/1.1/DTD/svg11.dtd"><svg t="1589211066349" class="icon" viewBox="0 0 1024 1024" version="1.1" xmlns="http://www.w3.org/2000/svg" p-id="14414" xmlns:xlink="http://www.w3.org/1999/xlink" width="200" height="200"><defs><style type="text/css"></style></defs><path d="M256 475.428571m18.102857 0l731.794286 0q18.102857 0 18.102857 18.102858l0 36.937142q0 18.102857-18.102857 18.102858l-731.794286 0q-18.102857 0-18.102857-18.102858l0-36.937142q0-18.102857 18.102857-18.102858Z" p-id="14415"></path><path d="M256 146.285714m18.102857 0l731.794286 0q18.102857 0 18.102857 18.102857l0 36.937143q0 18.102857-18.102857 18.102857l-731.794286 0q-18.102857 0-18.102857-18.102857l0-36.937143q0-18.102857 18.102857-18.102857Z" p-id="14416"></path><path d="M256 804.571429m18.102857 0l731.794286 0q18.102857 0 18.102857 18.102857l0 36.937143q0 18.102857-18.102857 18.102857l-731.794286 0q-18.102857 0-18.102857-18.102857l0-36.937143q0-18.102857 18.102857-18.102857Z" p-id="14417"></path><path d="M73.142857 182.857143m-73.142857 0a73.142857 73.142857 0 1 0 146.285714 0 73.142857 73.142857 0 1 0-146.285714 0Z" p-id="14418"></path><path d="M73.142857 512m-73.142857 0a73.142857 73.142857 0 1 0 146.285714 0 73.142857 73.142857 0 1 0-146.285714 0Z" p-id="14419"></path><path d="M73.142857 841.142857m-73.142857 0a73.142857 73.142857 0 1 0 146.285714 0 73.142857 73.142857 0 1 0-146.285714 0Z" p-id="14420"></path></svg>