<?xml version="1.0" standalone="no"?><!DOCTYPE svg PUBLIC "-//W3C//DTD SVG 1.1//EN" "http://www.w3.org/Graphics/SVG/1.1/DTD/svg11.dtd"><svg t="1589214060968" class="icon" viewBox="0 0 1025 1024" version="1.1" xmlns="http://www.w3.org/2000/svg" p-id="8972" xmlns:xlink="http://www.w3.org/1999/xlink" width="200.1953125" height="200"><defs><style type="text/css"></style></defs><path d="M508.78875 282.88125c61.11875 0 110.85 51.29375 110.85 114.35L619.63875 465 397.94 465l0-67.76875C397.94 334.175 447.66625 282.88125 508.78875 282.88125L508.78875 282.88125 508.78875 282.88125z" p-id="8973"></path><path d="M684.22875 488.2225l-53.34 0-11.25 0L397.94 488.2225l-11.6125 0-46.5375 0c-5.37125 0-9.74125 4.37125-9.74125 9.73625l0 233.42375c0 5.37125 4.37 9.74125 9.74125 9.74125l344.44375 0c5.37125 0 9.73625-4.37 9.73625-9.74125L693.97 497.95875C693.97 492.59375 689.6 488.2225 684.22875 488.2225zM527.21625 591.92875c-0.65375 28.5075-7.02625 62.53-14.795 62.53-7.7675 0-14.13625-34.02875-14.79125-62.53-4.2425-3.965-6.91375-9.59-6.91375-15.85375 0-11.9875 9.7175-21.705 21.70375-21.705 11.9875 0 21.70375 9.7175 21.70375 21.705C534.12625 582.33875 531.455 587.96375 527.21625 591.92875z" p-id="8974"></path><path d="M512.00625 0C229.23375 0 0 229.23875 0 512.0175 0 794.78125 229.23375 1024 512.01625 1024c282.76375 0 512.00625-229.22375 512.00625-511.9825C1024.00875 229.23875 794.78 0 512.00625 0zM717.1925 731.3825c0 18.17375-14.785 32.96375-32.95375 32.96375L339.795 764.34625c-18.17875 0-32.96375-14.79-32.96375-32.96375L306.83125 497.95875c0-18.17375 14.79-32.95875 32.96375-32.95875l34.92625 0 0-67.76875c0-36.68875 13.90625-71.19625 39.15625-97.1625 25.33125-26.06 59.0425-40.41 94.91625-40.41 35.86875 0 69.58 14.34875 94.9175 40.41 25.24375 25.96625 39.15 60.47375 39.15 97.1625L642.86125 465l41.3725 0c18.17375 0 32.95875 14.785 32.95875 32.95875L717.1925 731.3825z" p-id="8975"></path><path d="M512.00625 999.03875" p-id="8976"></path></svg>