<?xml version="1.0" standalone="no"?><!DOCTYPE svg PUBLIC "-//W3C//DTD SVG 1.1//EN" "http://www.w3.org/Graphics/SVG/1.1/DTD/svg11.dtd"><svg t="1589211088162" class="icon" viewBox="0 0 1024 1024" version="1.1" xmlns="http://www.w3.org/2000/svg" p-id="14663" xmlns:xlink="http://www.w3.org/1999/xlink" width="200" height="200"><defs><style type="text/css"></style></defs><path d="M102.857143 0h748.491428c17.108571 1.165714 33.771429 8.64 45.588572 21.142857 12.148571 12.571429 19.131429 29.931429 19.051428 47.405714 0.022857 34.674286 0.011429 69.348571 0.011429 104.022858h-45.714286c-0.022857-34.697143 0.034286-69.394286-0.022857-104.08 0.285714-12.171429-10.64-23.04-22.788571-22.754286-246.868571-0.034286-493.737143-0.034286-740.594286 0-12.217143-0.331429-23.188571 10.628571-22.857143 22.845714-0.057143 293.314286 0 586.628571-0.034286 879.942857 0.034286 5.2-0.4 10.651429 1.725715 15.554286 3.485714 8.8 12.811429 14.708571 22.274285 14.217143 246.468571-0.034286 492.937143 0.022857 739.394286-0.034286 12.205714 0.342857 23.188571-10.582857 22.88-22.8 0.057143-131.051429 0-262.114286 0.022857-393.177143h45.714286c0 131.074286 0.011429 262.148571-0.011429 393.222857 0.137143 20.697143-9.84 41.097143-26.16 53.805715-10.902857 8.708571-24.525714 13.634286-38.388571 14.685714H102.902857c-17.154286-1.177143-33.851429-8.697143-45.657143-21.257143C46.022857 991.142857 39.428571 975.474286 38.285714 959.428571V64.64c1.154286-16.88 8.434286-33.314286 20.64-45.085714C70.582857 7.988571 86.525714 1.154286 102.857143 0z" p-id="14664"></path><path d="M197.394286 167.222857c3.348571-0.354286 6.72-0.205714 10.091428-0.217143 115.405714 0 230.822857 0.011429 346.24 0 7.702857-0.32 15.44 3.428571 19.782857 9.828572 5.234286 7.337143 5.428571 17.805714 0.491429 25.337143-4.274286 6.822857-12.308571 10.902857-20.32 10.56-117.702857-0.022857-235.405714 0.011429-353.097143-0.022858-6.32 0.045714-12.594286-2.628571-16.857143-7.291428-5.554286-5.874286-7.6-14.822857-5.028571-22.514286 2.537143-8.228571 10.125714-14.628571 18.697143-15.68zM779.108571 238.011429c14.685714-14.822857 34.914286-23.965714 55.76-25.12 19.897143-1.245714 40.171429 4.697143 56.182858 16.594285 6.582857 4.765714 12.08 10.788571 17.84 16.468572 16.948571 16.96 33.931429 33.897143 50.857142 50.88 14.022857 14.045714 22.845714 33.108571 24.514286 52.88 2.342857 24.754286-6.777143 50.285714-24.331428 67.897143-30.56 30.605714-61.154286 61.177143-91.748572 91.76-60.08-60.068571-120.148571-120.137143-180.205714-180.217143 30.365714-30.4 60.742857-60.765714 91.131428-91.142857m39.28 26.731428c-5.074286 3.154286-8.982857 7.714286-13.211428 11.851429-17.52 17.52-35.051429 35.028571-52.56 52.56 38.468571 38.525714 77.04 76.948571 115.451428 115.52 16.765714-16.377143 33.177143-33.12 49.805715-49.634286 6.182857-6.422857 13.474286-12.205714 17.188571-20.548571 5.508571-11.531429 5.017143-25.68-1.257143-36.811429-2.48-4.571429-6.114286-8.354286-9.794285-11.965714-18.902857-18.845714-37.702857-37.782857-56.651429-56.571429-12.868571-12.32-34.114286-14.194286-48.971429-4.4zM197.44 320.365714c30.754286-0.491429 61.531429-0.08 92.297143-0.217143 52.925714 0 105.851429 0.011429 158.777143 0 4.194286 0.034286 8.514286-0.308571 12.571428 1.04 8.88 2.64 15.577143 11.177143 16 20.445715 0.72 9.474286-5.211429 18.914286-14 22.457143-4.56 2.034286-9.645714 1.794286-14.514285 1.782857-82.64-0.022857-165.28 0.022857-247.92-0.022857-6.914286 0.08-13.76-3.154286-18.034286-8.582858-4.982857-6.125714-6.377143-14.902857-3.554286-22.262857 2.822857-7.771429 10.16-13.645714 18.377143-14.64zM349.988571 667.131429c101.405714-101.382857 202.765714-202.811429 304.194286-304.16 60.068571 60.057143 120.148571 120.114286 180.205714 180.205714-63.291429 63.314286-126.605714 126.594286-189.897142 189.908571-46.788571 46.891429-93.817143 93.565714-140.445715 140.617143-61.474286 16.468571-122.948571 32.914286-184.4 49.428572-16.377143 3.657143-34.388571-4.902857-41.965714-19.851429-4.834286-9.097143-5.68-20.125714-2.525714-29.908571 16.148571-60.034286 32.205714-120.091429 48.285714-180.148572 9.28-8.228571 17.634286-17.474286 26.548571-26.091428m15.177143 49.462857c-1.451429 1.52-1.577143 3.748571-2.182857 5.657143-13.611429 50.971429-27.314286 101.908571-40.937143 152.88 52.08-13.942857 104.148571-27.92 156.228572-41.84 2.651429-0.468571 4.114286-2.948571 5.977143-4.617143 95.142857-95.177143 190.331429-190.331429 285.485714-285.497143-38.514286-38.537143-77.04-77.062857-115.577143-115.577143L365.165714 716.594286zM197.417143 466.651429c22.742857-0.491429 45.52-0.068571 68.285714-0.217143 38.491429 0.011429 76.994286-0.011429 115.497143 0.022857 8.445714-0.102857 16.651429 5.005714 20.365714 12.582857 3.965714 7.714286 2.971429 17.68-2.502857 24.422857-4.251429 5.417143-11.028571 8.708571-17.908571 8.674286-58.308571 0.045714-116.617143-0.011429-174.925715 0.022857-4.845714 0.011429-9.885714 0.262857-14.422857-1.737143-9.257143-3.622857-15.325714-13.805714-14.034285-23.668571 0.937143-10.16 9.508571-18.925714 19.645714-20.102857z" p-id="14665"></path></svg>