<?xml version="1.0" standalone="no"?><!DOCTYPE svg PUBLIC "-//W3C//DTD SVG 1.1//EN" "http://www.w3.org/Graphics/SVG/1.1/DTD/svg11.dtd"><svg t="1589208804315" class="icon" viewBox="0 0 1024 1024" version="1.1" xmlns="http://www.w3.org/2000/svg" p-id="3881" xmlns:xlink="http://www.w3.org/1999/xlink" width="200" height="200"><defs><style type="text/css"></style></defs><path d="M531.5 374.6l2.8-2.8c28.1-53.2 28.1-112 0-165.2-28.1-50.4-84.1-81.3-142.9-81.3-28.1 0-56.1 8.5-81.3 22.4-42.1 22.4-70 58.9-81.3 103.8-11.2 42.1-2.8 84.1 19.6 120.4l2.8 5.6h-70v-2.8c-22.4-58.9-22.4-117.6 0-170.9 36.6-84 117.8-140 210.2-140 28.1 0 58.9 5.6 86.8 16.8C534.3 103 579.1 145.1 601.5 201c25.3 56.1 25.3 117.6 0 173.7v2.8h-70v-2.9z" p-id="3882"></path><path d="M702 959c-9.6-5.4-18.8-11.4-27.7-17.7-25-17.7-51.1-40.1-73.2-63.3-25.3-26.3-45.9-53.7-59.9-79.3-13.9-25.5-21.2-49.5-21.2-69.6v-210l16.4 5.3c16.7 5.4 33 8.1 48.5 8.1 25.8 0 51.4-4.5 75.2-13.1-3-30.3-26.7-52.3-52.9-52.3-28.1 0-53.2 28.1-53.2 58.9v-30.7c0-33.6-25.3-58.9-53.2-58.9-28.1 0-53.2 28.1-53.2 58.9V301.9c0-33.6-25.3-58.9-53.2-58.9-28.1 0-50.4 28.1-50.4 58.9v341.7c0 16.8-11.2 30.8-28.1 30.8h-8.5l-75.7-33.6c-8.5-5.6-16.8-2.8-25.3-5.6-28.1-8.5-53.2 28.1-53.2 58.9 0 19.6 22.4 44.9 33.6 56.1l204.5 210.1h313.5c-1.1-0.3-1.9-0.8-2.8-1.3z" p-id="3883"></path><path d="M716 651.6c-14.5 0-26.4 11.1-26.4 24.7S701.4 701 716 701s26.5-11.1 26.5-24.7c-0.1-13.6-11.9-24.7-26.5-24.7z m110.6-78.1c-40.9 0-79.6-12.4-110.6-33.9-31 21.5-69.7 33.9-110.6 33.9-14.2 0-29-2.5-44.1-7.3v162.7c0 15.1 5.8 33.6 16.6 53.6 11.3 20.8 28.2 43.1 48.8 64.6 18.4 19.2 39.7 37.6 60.2 52.1 7.2 5.2 14.8 9.9 22.4 14.3 2.9 1.7 6.5 1.6 9.5-0.1 7.8-4.6 15.3-9.6 22.7-14.9 22.1-15.8 42.7-33.5 61.8-52.9 21.4-21.8 38.8-44.2 50.5-64.7 11.2-19.6 17-37.7 17-52.2V566.1c-15.2 5-29.9 7.4-44.2 7.4z m-93.9 168.7v71c-0.1 8.6-7.7 15.6-16.9 15.5-9-0.1-16.4-6.9-16.5-15.5v-71c-31.8-7-55.6-33.9-55.6-65.9 0-37.3 32.5-67.7 72.3-67.7 39.9 0 72.3 30.3 72.3 67.7 0 31.9-23.8 58.8-55.6 65.9z" p-id="3884"></path></svg>