<?xml version="1.0" standalone="no"?><!DOCTYPE svg PUBLIC "-//W3C//DTD SVG 1.1//EN" "http://www.w3.org/Graphics/SVG/1.1/DTD/svg11.dtd"><svg t="1589211078090" class="icon" viewBox="0 0 1024 1024" version="1.1" xmlns="http://www.w3.org/2000/svg" p-id="14541" xmlns:xlink="http://www.w3.org/1999/xlink" width="200" height="200"><defs><style type="text/css"></style></defs><path d="M869.4 451.7H659.5c-39.6 0-71.8-32.2-71.8-71.8V170c0-39.6 32.2-71.8 71.8-71.8h209.9c39.6 0 71.8 32.2 71.8 71.8v209.9c0 39.6-32.2 71.8-71.8 71.8zM659.5 134c-19.8 0-36 16.1-36 36v209.9c0 19.8 16.1 36 36 36h209.9c19.8 0 36-16.1 36-36V170c0-19.8-16.1-36-36-36H659.5zM416 451.7H119.6c-15.8 0-28.6-12.8-28.6-28.6V126.7c0-15.8 12.8-28.6 28.6-28.6H416c15.8 0 28.6 12.8 28.6 28.6V423c-0.1 15.9-12.9 28.7-28.6 28.7z m-289.2-35.9h281.9V134H126.8v281.8z m785.7 512.4H616.4c-15.8 0-28.7-12.9-28.7-28.7V603.4c0-15.9 12.9-28.7 28.7-28.7h296.1c15.8 0 28.7 12.9 28.7 28.7v296.1c0 15.8-12.9 28.7-28.7 28.7z m-289-35.8h281.9V610.5H623.5v281.9z m-220.1 31.9H132.2c-19.5 0-36.9-10.1-46.7-26.9-9.7-16.9-9.7-37.1 0-53.9l135.6-234.8c9.7-16.9 27.2-26.9 46.7-26.9 19.5 0 37 10.1 46.7 26.9l135.6 234.8c9.7 16.9 9.7 37 0 53.9-9.8 16.8-27.3 26.9-46.7 26.9zM267.8 617.5c-3.1 0-10.9 0.9-15.6 9L116.6 861.3c-4.7 8.2-1.6 15.4 0 18.1 1.6 2.7 6.2 9 15.6 9h271.2c9.4 0 14.1-6.3 15.7-9 1.6-2.7 4.7-9.9 0-18.1L283.4 626.5c-4.7-8.2-12.5-9.1-15.6-9z" p-id="14542"></path></svg>